# xmcd
# 
# Track frame offsets:
#     215
#     18453
#     36931
#     54515
#     77978
#     91620
#     110713
#     123440
#     147477
#     158982
#     172951
#     190197
#     213451
# 
# Disc length: 2857
# 
# Revision: 0
# Processed by: cddbd v1.5.2PL0 Copyright (c) Steve Scherf et al.
# Submitted via: fre:ac v1.0.31
# 
DISCID=b20b270d
DTITLE=Kevin Wright and Olga Bystram - Out Of The Blue
DYEAR=1996
DGENRE=Blues
TTITLE0=Ain't Got Time
TTITLE1=When You Got A Good Friend
TTITLE2=Stepping Out
TTITLE3=Time And The Tide
TTITLE4=The World Is Round
TTITLE5=Rainy, Rainy Day
TTITLE6=I'm So Glad
TTITLE7=Wherever You Are
TTITLE8=Why Did I Worry
TTITLE9=Don't Mess With The Devil
TTITLE10=You're The One
TTITLE11=Out Of The Blue
TTITLE12=Outro
EXTD=
EXTT0=
EXTT1=
EXTT2=
EXTT3=
EXTT4=
EXTT5=
EXTT6=
EXTT7=
EXTT8=
EXTT9=
EXTT10=
EXTT11=
EXTT12=
PLAYORDER=
